Coordinates
version=1
nRows=21
nColumns=12
inDegrees=yes

Units are S.I. units (second, meters, Newtons, ...)
Angles are in degrees

endheader
time	SC_y	SC_z	SC_x	AC_y	AC_z	AC_x	GH_y	GH_z	GH_yy	EL_x	PS_y
       0.0              -37.64          8.032           3.59          51.46          5.676          10.54         -30.06          58.93          39.67          115.2          91.38
   0.03886              -37.64          8.031          3.597          51.46          5.672          10.54         -30.07          58.93          39.68          115.2          91.37
   0.07771              -37.64          8.029          3.605          51.46          5.668          10.54         -30.08          58.92          39.68          115.2          91.36
    0.1166              -37.64          8.027          3.613          51.46          5.664          10.53         -30.08          58.92          39.69          115.2          91.36
    0.1554              -37.64          8.025          3.622          51.46           5.66          10.53         -30.09          58.92           39.7          115.2          91.35
    0.1943              -37.64          8.022          3.632          51.46          5.655          10.53          -30.1          58.91          39.71          115.2          91.34
    0.2331              -37.65           8.02          3.642          51.46           5.65          10.52         -30.11          58.91          39.72          115.2          91.33
     0.272              -37.65          8.018          3.653          51.47          5.645          10.52         -30.12          58.91          39.74          115.2          91.32
    0.3108              -37.65          8.015          3.664          51.47          5.639          10.51         -30.13           58.9          39.75          115.1          91.31
    0.3497              -37.65          8.012          3.677          51.47          5.633          10.51         -30.14           58.9          39.76          115.1           91.3
    0.3886              -37.66          8.009           3.69          51.47          5.626           10.5         -30.15          58.89          39.78          115.1          91.29
    0.4274              -37.66          8.005          3.705          51.47          5.619           10.5         -30.17          58.89          39.79          115.1          91.28
    0.4663              -37.66          8.002           3.72          51.47          5.612          10.49         -30.18          58.88          39.81          115.1          91.26
    0.5051              -37.66          7.998          3.737          51.47          5.604          10.49          -30.2          58.88          39.83          115.1          91.25
     0.544              -37.67          7.993          3.755          51.47          5.595          10.48         -30.21          58.87          39.85          115.1          91.23
    0.5828              -37.67          7.989          3.775          51.47          5.585          10.47         -30.23          58.87          39.87          115.1          91.22
    0.6217              -37.68          7.984          3.797          51.48          5.574          10.46         -30.25          58.86          39.89          115.0           91.2
    0.6606              -37.68          7.978           3.82          51.48          5.563          10.45         -30.27          58.85          39.92          115.0          91.18
    0.6994              -37.69          7.972          3.845          51.48           5.55          10.44         -30.29          58.84          39.94          115.0          91.16
    0.7383              -37.69          7.966          3.873          51.48          5.537          10.43         -30.32          58.83          39.97          115.0          91.13
    0.7771               -37.7          7.958          3.904          51.48          5.522          10.42         -30.35          58.82          40.01          115.0           91.1
